<mxfile host="app.diagrams.net" modified="2021-04-10T16:46:32.891Z" agent="5.0 (X11; Linux x86_64) AppleWebKit/537.36 (KHTML, like Gecko) Chrome/89.0.4389.114 Safari/537.36" etag="cEI4xJh2V8Ne3bc6pSY6" version="14.5.10" type="github">
  <diagram name="Page-1" id="97916047-d0de-89f5-080d-49f4d83e522f">
    <mxGraphModel dx="1117" dy="1064" grid="1" gridSize="10" guides="1" tooltips="1" connect="1" arrows="1" fold="1" page="1" pageScale="1.5" pageWidth="1169" pageHeight="827" background="#ffffff" math="0" shadow="0">
      <root>
        <mxCell id="0" />
        <mxCell id="1" parent="0" />
        <mxCell id="2" value="School" style="rounded=1;fillColor=#10739E;strokeColor=none;shadow=1;gradientColor=none;fontStyle=1;fontColor=#FFFFFF;fontSize=14;" parent="1" vertex="1">
          <mxGeometry x="672" y="205.5" width="200" height="60" as="geometry" />
        </mxCell>
        <mxCell id="H-iCgf8CoXjkj9gifYdi-74" style="edgeStyle=orthogonalEdgeStyle;orthogonalLoop=1;jettySize=auto;html=1;startFill=0;endArrow=block;endFill=1;strokeColor=#0A3E61;strokeWidth=4;" edge="1" parent="1" source="3" target="H-iCgf8CoXjkj9gifYdi-56">
          <mxGeometry relative="1" as="geometry" />
        </mxCell>
        <mxCell id="3" value="Principal (Admin)" style="rounded=1;fillColor=#10739E;strokeColor=none;shadow=1;gradientColor=none;fontStyle=1;fontColor=#FFFFFF;fontSize=14;" parent="1" vertex="1">
          <mxGeometry x="662" y="345.5" width="220" height="60" as="geometry" />
        </mxCell>
        <mxCell id="H-iCgf8CoXjkj9gifYdi-58" style="edgeStyle=orthogonalEdgeStyle;rounded=0;orthogonalLoop=1;jettySize=auto;html=1;entryX=0.5;entryY=0;entryDx=0;entryDy=0;startArrow=block;startFill=1;endArrow=block;endFill=1;" edge="1" parent="1" target="H-iCgf8CoXjkj9gifYdi-56">
          <mxGeometry relative="1" as="geometry">
            <mxPoint x="772" y="470" as="sourcePoint" />
          </mxGeometry>
        </mxCell>
        <mxCell id="H-iCgf8CoXjkj9gifYdi-76" style="edgeStyle=orthogonalEdgeStyle;orthogonalLoop=1;jettySize=auto;html=1;entryX=0.5;entryY=0;entryDx=0;entryDy=0;startFill=0;endArrow=block;endFill=1;strokeColor=#0A3E61;strokeWidth=4;" edge="1" parent="1" source="7" target="H-iCgf8CoXjkj9gifYdi-56">
          <mxGeometry relative="1" as="geometry" />
        </mxCell>
        <mxCell id="7" value="Vice-Principal (co-admin) (2)" style="rounded=1;fillColor=#10739E;strokeColor=none;shadow=1;gradientColor=none;fontStyle=1;fontColor=#FFFFFF;fontSize=14;" parent="1" vertex="1">
          <mxGeometry x="930" y="420" width="200" height="60" as="geometry" />
        </mxCell>
        <mxCell id="29" value="" style="edgeStyle=elbowEdgeStyle;elbow=vertical;strokeWidth=4;endArrow=block;endFill=1;fontStyle=1;strokeColor=#23445D;" parent="1" source="2" target="3" edge="1">
          <mxGeometry x="22" y="165.5" width="100" height="100" as="geometry">
            <mxPoint x="22" y="265.5" as="sourcePoint" />
            <mxPoint x="122" y="165.5" as="targetPoint" />
          </mxGeometry>
        </mxCell>
        <mxCell id="33" value="" style="edgeStyle=elbowEdgeStyle;elbow=vertical;strokeWidth=4;endArrow=block;endFill=1;fontStyle=1;dashed=1;strokeColor=#23445D;" parent="1" source="2" target="7" edge="1">
          <mxGeometry x="22" y="165.5" width="100" height="100" as="geometry">
            <mxPoint x="22" y="265.5" as="sourcePoint" />
            <mxPoint x="122" y="165.5" as="targetPoint" />
            <Array as="points">
              <mxPoint x="1062" y="295.5" />
            </Array>
          </mxGeometry>
        </mxCell>
        <mxCell id="H-iCgf8CoXjkj9gifYdi-65" style="edgeStyle=orthogonalEdgeStyle;orthogonalLoop=1;jettySize=auto;html=1;startFill=0;endArrow=block;endFill=1;strokeColor=#0A3E61;strokeWidth=4;" edge="1" parent="1" source="H-iCgf8CoXjkj9gifYdi-56" target="H-iCgf8CoXjkj9gifYdi-64">
          <mxGeometry relative="1" as="geometry" />
        </mxCell>
        <mxCell id="H-iCgf8CoXjkj9gifYdi-67" style="edgeStyle=orthogonalEdgeStyle;orthogonalLoop=1;jettySize=auto;html=1;startFill=0;endArrow=block;endFill=1;strokeColor=#0A3E61;strokeWidth=4;dashed=1;" edge="1" parent="1" source="H-iCgf8CoXjkj9gifYdi-56" target="H-iCgf8CoXjkj9gifYdi-66">
          <mxGeometry relative="1" as="geometry" />
        </mxCell>
        <mxCell id="H-iCgf8CoXjkj9gifYdi-81" style="edgeStyle=orthogonalEdgeStyle;orthogonalLoop=1;jettySize=auto;html=1;startFill=0;endArrow=block;endFill=1;strokeColor=#0A3E61;strokeWidth=4;dashed=1;" edge="1" parent="1" source="H-iCgf8CoXjkj9gifYdi-56" target="H-iCgf8CoXjkj9gifYdi-78">
          <mxGeometry relative="1" as="geometry" />
        </mxCell>
        <mxCell id="H-iCgf8CoXjkj9gifYdi-56" value="Grades (1-12)" style="rounded=1;fillColor=#10739E;strokeColor=none;shadow=1;gradientColor=none;fontStyle=1;fontColor=#FFFFFF;fontSize=14;" vertex="1" parent="1">
          <mxGeometry x="672" y="530" width="200" height="60" as="geometry" />
        </mxCell>
        <mxCell id="H-iCgf8CoXjkj9gifYdi-71" style="edgeStyle=orthogonalEdgeStyle;orthogonalLoop=1;jettySize=auto;html=1;startFill=0;endArrow=block;endFill=1;strokeColor=#0A3E61;strokeWidth=4;" edge="1" parent="1" source="H-iCgf8CoXjkj9gifYdi-64" target="H-iCgf8CoXjkj9gifYdi-69">
          <mxGeometry relative="1" as="geometry" />
        </mxCell>
        <mxCell id="H-iCgf8CoXjkj9gifYdi-72" style="edgeStyle=orthogonalEdgeStyle;orthogonalLoop=1;jettySize=auto;html=1;startFill=0;endArrow=block;endFill=1;strokeColor=#0A3E61;strokeWidth=4;" edge="1" parent="1" source="H-iCgf8CoXjkj9gifYdi-64" target="H-iCgf8CoXjkj9gifYdi-70">
          <mxGeometry relative="1" as="geometry" />
        </mxCell>
        <mxCell id="H-iCgf8CoXjkj9gifYdi-73" style="edgeStyle=orthogonalEdgeStyle;orthogonalLoop=1;jettySize=auto;html=1;startFill=0;endArrow=block;endFill=1;strokeColor=#0A3E61;strokeWidth=4;" edge="1" parent="1" source="H-iCgf8CoXjkj9gifYdi-64" target="H-iCgf8CoXjkj9gifYdi-68">
          <mxGeometry relative="1" as="geometry" />
        </mxCell>
        <mxCell id="H-iCgf8CoXjkj9gifYdi-64" value="Sections (varies)" style="rounded=1;fillColor=#10739E;strokeColor=none;shadow=1;gradientColor=none;fontStyle=1;fontColor=#FFFFFF;fontSize=14;" vertex="1" parent="1">
          <mxGeometry x="672" y="680" width="200" height="60" as="geometry" />
        </mxCell>
        <mxCell id="H-iCgf8CoXjkj9gifYdi-75" style="edgeStyle=orthogonalEdgeStyle;orthogonalLoop=1;jettySize=auto;html=1;entryX=0.5;entryY=0;entryDx=0;entryDy=0;startFill=0;endArrow=block;endFill=1;strokeColor=#0A3E61;strokeWidth=4;" edge="1" parent="1" source="H-iCgf8CoXjkj9gifYdi-66" target="H-iCgf8CoXjkj9gifYdi-64">
          <mxGeometry relative="1" as="geometry" />
        </mxCell>
        <mxCell id="H-iCgf8CoXjkj9gifYdi-66" value="Grade Moderator (1)" style="rounded=1;fillColor=#10739E;strokeColor=none;shadow=1;gradientColor=none;fontStyle=1;fontColor=#FFFFFF;fontSize=14;" vertex="1" parent="1">
          <mxGeometry x="930" y="620" width="200" height="60" as="geometry" />
        </mxCell>
        <mxCell id="H-iCgf8CoXjkj9gifYdi-68" value="Class Teacher (1)" style="rounded=1;fillColor=#10739E;strokeColor=none;shadow=1;gradientColor=none;fontStyle=1;fontColor=#FFFFFF;fontSize=14;" vertex="1" parent="1">
          <mxGeometry x="672" y="810" width="200" height="60" as="geometry" />
        </mxCell>
        <mxCell id="H-iCgf8CoXjkj9gifYdi-69" value="Teachers (varies)" style="rounded=1;fillColor=#10739E;strokeColor=none;shadow=1;gradientColor=none;fontStyle=1;fontColor=#FFFFFF;fontSize=14;" vertex="1" parent="1">
          <mxGeometry x="430" y="810" width="200" height="60" as="geometry" />
        </mxCell>
        <mxCell id="H-iCgf8CoXjkj9gifYdi-70" value="Student (varies)" style="rounded=1;fillColor=#10739E;strokeColor=none;shadow=1;gradientColor=none;fontStyle=1;fontColor=#FFFFFF;fontSize=14;" vertex="1" parent="1">
          <mxGeometry x="940" y="810" width="200" height="60" as="geometry" />
        </mxCell>
        <mxCell id="H-iCgf8CoXjkj9gifYdi-82" style="edgeStyle=orthogonalEdgeStyle;orthogonalLoop=1;jettySize=auto;html=1;entryX=0.5;entryY=0;entryDx=0;entryDy=0;startFill=0;endArrow=block;endFill=1;strokeColor=#0A3E61;strokeWidth=4;" edge="1" parent="1" source="H-iCgf8CoXjkj9gifYdi-78" target="H-iCgf8CoXjkj9gifYdi-64">
          <mxGeometry relative="1" as="geometry" />
        </mxCell>
        <mxCell id="H-iCgf8CoXjkj9gifYdi-78" value="GradeÂ Examiner (1)" style="rounded=1;fillColor=#10739E;strokeColor=none;shadow=1;gradientColor=none;fontStyle=1;fontColor=#FFFFFF;fontSize=14;" vertex="1" parent="1">
          <mxGeometry x="390" y="620" width="200" height="60" as="geometry" />
        </mxCell>
      </root>
    </mxGraphModel>
  </diagram>
</mxfile>
